<?xml version="1.0" encoding="utf-8"?>
<!-- Generator: Adobe Illustrator 20.0.0, SVG Export Plug-In . SVG Version: 6.00 Build 0)  -->
<svg version="1.1" id="Layer_5" xmlns="http://www.w3.org/2000/svg" xmlns:xlink="http://www.w3.org/1999/xlink" x="0px" y="0px"
	 viewBox="0 0 538.58 345.83" style="enable-background:new 0 0 538.58 345.83;" xml:space="preserve">
<g>
	<path d="M493.23,0H45.35C20.35,0,0,20.35,0,45.35v255.12c0,25.01,20.35,45.35,45.35,45.35h447.87c25.01,0,45.35-20.35,45.35-45.35
		V45.35C538.58,20.35,518.24,0,493.23,0z M532.91,300.47c0,21.88-17.8,39.68-39.68,39.68H45.35c-21.88,0-39.69-17.8-39.69-39.68
		V45.35c0-21.88,17.8-39.69,39.69-39.69h447.87c21.88,0,39.68,17.8,39.68,39.69V300.47z"/>
	<path d="M479.05,49.61H59.53c-5.47,0-9.92,4.45-9.92,9.92V286.3c0,5.47,4.45,9.92,9.92,9.92h419.53c5.47,0,9.92-4.45,9.92-9.92
		V59.53C488.98,54.06,484.53,49.61,479.05,49.61z M486.14,286.3c0,3.91-3.18,7.09-7.09,7.09H59.53c-3.91,0-7.09-3.18-7.09-7.09
		V59.53c0-3.91,3.18-7.09,7.09-7.09h419.53c3.91,0,7.09,3.18,7.09,7.09V286.3z"/>
	<polygon points="66.74,72.68 68.95,72.68 68.95,62.47 72.86,62.47 72.86,60.48 62.84,60.48 62.84,62.47 66.74,62.47 	"/>
	<path d="M72.34,68.18c0,0.91,0.08,1.67,0.25,2.29c0.17,0.61,0.42,1.1,0.75,1.46c0.33,0.36,0.75,0.62,1.25,0.77
		c0.5,0.15,1.09,0.23,1.77,0.23c0.68,0,1.27-0.08,1.78-0.23c0.51-0.15,0.93-0.41,1.27-0.77c0.34-0.36,0.59-0.85,0.76-1.46
		c0.17-0.61,0.25-1.37,0.25-2.29c0-0.91-0.08-1.67-0.25-2.27c-0.17-0.6-0.42-1.08-0.76-1.44c-0.34-0.36-0.76-0.61-1.27-0.75
		c-0.51-0.15-1.1-0.22-1.78-0.22c-0.66,0-1.25,0.07-1.75,0.22c-0.5,0.15-0.93,0.4-1.26,0.75c-0.34,0.36-0.59,0.83-0.76,1.44
		C72.43,66.52,72.34,67.27,72.34,68.18z M74.56,66.68c0.06-0.39,0.17-0.68,0.32-0.89c0.15-0.21,0.34-0.35,0.58-0.42
		c0.24-0.07,0.54-0.11,0.91-0.11c0.37,0,0.67,0.04,0.92,0.11c0.25,0.07,0.45,0.21,0.6,0.42c0.15,0.21,0.25,0.51,0.32,0.89
		c0.06,0.39,0.09,0.9,0.09,1.54c0,0.62-0.03,1.12-0.09,1.51c-0.06,0.39-0.17,0.69-0.32,0.9c-0.15,0.22-0.35,0.36-0.6,0.44
		c-0.25,0.08-0.56,0.11-0.92,0.11c-0.37,0-0.67-0.04-0.91-0.11c-0.24-0.08-0.43-0.22-0.58-0.44c-0.15-0.22-0.26-0.52-0.32-0.9
		c-0.06-0.39-0.09-0.89-0.09-1.51C74.47,67.57,74.5,67.06,74.56,66.68z"/>
	<path d="M82.95,71.93c0.33,0.36,0.75,0.62,1.25,0.77c0.5,0.15,1.09,0.23,1.77,0.23c0.68,0,1.27-0.08,1.78-0.23
		c0.51-0.15,0.93-0.41,1.27-0.77c0.34-0.36,0.59-0.85,0.76-1.46c0.17-0.61,0.25-1.37,0.25-2.29c0-0.91-0.08-1.67-0.25-2.27
		c-0.17-0.6-0.42-1.08-0.76-1.44c-0.34-0.36-0.76-0.61-1.27-0.75c-0.51-0.15-1.1-0.22-1.78-0.22c-0.67,0-1.25,0.07-1.75,0.22
		c-0.5,0.15-0.93,0.4-1.26,0.75c-0.34,0.36-0.59,0.83-0.76,1.44c-0.17,0.6-0.25,1.36-0.25,2.27c0,0.91,0.08,1.67,0.25,2.29
		C82.37,71.08,82.62,71.57,82.95,71.93z M84.17,66.68c0.06-0.39,0.17-0.68,0.32-0.89c0.15-0.21,0.34-0.35,0.58-0.42
		c0.24-0.07,0.54-0.11,0.91-0.11s0.67,0.04,0.92,0.11c0.25,0.07,0.45,0.21,0.6,0.42c0.15,0.21,0.25,0.51,0.32,0.89
		c0.06,0.39,0.09,0.9,0.09,1.54c0,0.62-0.03,1.12-0.09,1.51c-0.06,0.39-0.17,0.69-0.32,0.9c-0.15,0.22-0.35,0.36-0.6,0.44
		c-0.25,0.08-0.56,0.11-0.92,0.11s-0.67-0.04-0.91-0.11c-0.24-0.08-0.43-0.22-0.58-0.44c-0.15-0.22-0.25-0.52-0.32-0.9
		c-0.06-0.39-0.09-0.89-0.09-1.51C84.08,67.57,84.11,67.06,84.17,66.68z"/>
	<path d="M102.21,62.67h0.18c0.04,0,0.08,0.02,0.12,0.07c0.04,0.05,0.08,0.11,0.13,0.18s0.08,0.16,0.11,0.25
		c0.03,0.1,0.06,0.19,0.08,0.28h0.82c-0.07-0.32-0.16-0.55-0.27-0.7c-0.11-0.15-0.21-0.25-0.32-0.3c0.21,0,0.37-0.06,0.48-0.17
		c0.12-0.12,0.17-0.33,0.17-0.64c0-0.24-0.05-0.46-0.16-0.63c-0.11-0.18-0.28-0.27-0.53-0.27h-1.58v2.72h0.76V62.67z M102.21,61.38
		h0.52c0.08,0,0.13,0.03,0.16,0.08c0.03,0.05,0.04,0.12,0.04,0.2c0,0.1-0.01,0.17-0.04,0.22c-0.03,0.05-0.08,0.08-0.16,0.08h-0.52
		V61.38z"/>
	<path d="M100.75,64.09c0.19,0.2,0.43,0.34,0.72,0.42c0.29,0.08,0.63,0.12,1.03,0.12c0.39,0,0.74-0.04,1.03-0.12
		c0.29-0.08,0.53-0.22,0.72-0.42c0.19-0.2,0.33-0.46,0.43-0.78c0.09-0.32,0.14-0.73,0.14-1.22c0-0.5-0.05-0.91-0.14-1.23
		c-0.09-0.32-0.24-0.58-0.43-0.77c-0.19-0.19-0.43-0.32-0.72-0.4c-0.29-0.08-0.63-0.12-1.03-0.12c-0.39,0-0.73,0.04-1.02,0.12
		c-0.29,0.08-0.53,0.21-0.72,0.4c-0.19,0.19-0.33,0.45-0.43,0.77c-0.09,0.32-0.14,0.73-0.14,1.23c0,0.49,0.05,0.9,0.14,1.22
		C100.42,63.64,100.56,63.9,100.75,64.09z M101.07,61.17c0.05-0.23,0.14-0.41,0.26-0.54c0.12-0.13,0.27-0.21,0.47-0.25
		c0.19-0.04,0.42-0.06,0.7-0.06c0.28,0,0.52,0.02,0.72,0.06c0.19,0.04,0.35,0.12,0.47,0.25c0.12,0.13,0.21,0.31,0.26,0.54
		c0.05,0.23,0.08,0.54,0.08,0.92c0,0.36-0.03,0.66-0.08,0.88c-0.05,0.23-0.14,0.41-0.26,0.54c-0.12,0.13-0.28,0.22-0.47,0.28
		c-0.19,0.05-0.43,0.08-0.72,0.08c-0.28,0-0.51-0.03-0.7-0.08s-0.35-0.14-0.47-0.28c-0.12-0.13-0.21-0.31-0.26-0.54
		c-0.05-0.23-0.08-0.52-0.08-0.88C100.99,61.71,101.02,61.41,101.07,61.17z"/>
	<path d="M93.92,65.68c0.5-0.14,1-0.21,1.51-0.21c0.37,0,0.67,0.03,0.9,0.1c0.23,0.07,0.42,0.2,0.56,0.39
		c0.14,0.19,0.23,0.44,0.28,0.76c0.05,0.32,0.07,0.73,0.07,1.22v4.74h2.06v-4.97c0-0.81-0.07-1.48-0.2-2.01
		c-0.13-0.54-0.34-0.97-0.62-1.29c-0.28-0.32-0.64-0.55-1.07-0.69c-0.43-0.14-0.95-0.21-1.55-0.21c-0.33,0-0.68,0.02-1.05,0.06
		c-0.37,0.04-0.72,0.1-1.07,0.17c-0.35,0.07-0.69,0.15-1.01,0.25c-0.33,0.09-0.62,0.19-0.87,0.3v8.4h2.06V65.68z"/>
	<g>
		<path d="M186.12,87.72H64.46c-1.79,0-3.25,1.38-3.25,3.07v76.97c0,1.69,1.46,3.06,3.25,3.06h121.66c1.79,0,3.25-1.37,3.25-3.06
			V90.78C189.36,89.09,187.91,87.72,186.12,87.72z M188.36,167.75c0,1.14-1.01,2.06-2.25,2.06H64.46c-1.24,0-2.25-0.93-2.25-2.06
			V90.78c0-1.14,1.01-2.07,2.25-2.07h121.66c1.24,0,2.25,0.93,2.25,2.07V167.75z"/>
		<path d="M317.66,173.94H195.99c-1.79,0-3.24,1.38-3.24,3.07v76.97c0,1.69,1.45,3.07,3.24,3.07h121.67c1.83,0,3.24-1.92,3.24-3.58
			v-76.45C320.9,175.32,319.45,173.94,317.66,173.94z M319.9,253.46c0,1.16-1.03,2.58-2.24,2.58H195.99c-1.24,0-2.24-0.93-2.24-2.07
			v-76.97c0-1.14,1-2.07,2.24-2.07h121.67c1.24,0,2.24,0.93,2.24,2.07V253.46z"/>
		<path d="M186.12,173.94H64.46c-1.79,0-3.25,1.37-3.25,3.06v76.97c0,1.69,1.46,3.07,3.25,3.07h121.66c1.79,0,3.25-1.38,3.25-3.07
			V177C189.36,175.31,187.91,173.94,186.12,173.94z M188.36,253.97c0,1.14-1.01,2.07-2.25,2.07H64.46c-1.24,0-2.25-0.93-2.25-2.07
			V177c0-1.14,1.01-2.06,2.25-2.06h121.66c1.24,0,2.25,0.93,2.25,2.06V253.97z"/>
		<path d="M317.66,87.72H195.99c-1.79,0-3.24,1.37-3.24,3.06v76.97c0,1.69,1.45,3.07,3.24,3.07h121.67c1.79,0,3.24-1.38,3.24-3.07
			V90.79C320.9,89.1,319.45,87.72,317.66,87.72z M319.9,167.76c0,1.14-1,2.07-2.24,2.07H195.99c-1.24,0-2.24-0.93-2.24-2.07V90.79
			c0-1.14,1-2.06,2.24-2.06h121.67c1.24,0,2.24,0.93,2.24,2.06V167.76z"/>
		<path d="M339.95,186.11l130.44,0c1.79,0,3.24-1.38,3.24-3.07v-35.72l-136.92,0v35.72C336.71,184.74,338.17,186.11,339.95,186.11z
			 M337.71,148.32l134.92,0v34.72c0,1.14-1,2.07-2.24,2.07l-130.44,0c-1.24,0-2.24-0.93-2.24-2.07V148.32z"/>
		<path d="M441.34,164.75h19.72c1.79,0,3.24-1.38,3.24-3.07v-6.17c0-1.69-1.45-3.07-3.24-3.07h-19.72c-1.79,0-3.24,1.38-3.24,3.07
			v6.17C438.1,163.37,439.56,164.75,441.34,164.75z M439.1,155.51c0-1.14,1-2.07,2.24-2.07h19.72c1.24,0,2.24,0.93,2.24,2.07v6.17
			c0,1.14-1.01,2.07-2.24,2.07h-19.72c-1.24,0-2.24-0.93-2.24-2.07V155.51z"/>
		<path d="M455.69,162.84h4.58c1.13,0,2.04-0.86,2.04-1.91v-4.6c0-1.06-0.92-1.91-2.04-1.91h-4.58c-1.13,0-2.04,0.86-2.04,1.91v4.6
			C453.64,161.98,454.56,162.84,455.69,162.84z"/>
		<path d="M350.4,160.37c-0.58,0-1.12-0.18-1.5-0.4l-0.21,0.66c0.34,0.22,1.03,0.39,1.65,0.39c1.52,0,2.26-0.81,2.26-1.74
			c0-0.89-0.56-1.38-1.65-1.78c-0.89-0.32-1.28-0.6-1.28-1.17c0-0.41,0.33-0.91,1.22-0.91c0.58,0,1.02,0.18,1.23,0.29l0.23-0.64
			c-0.29-0.15-0.77-0.3-1.43-0.3c-1.26,0-2.09,0.7-2.09,1.64c0,0.85,0.65,1.36,1.71,1.71c0.87,0.31,1.22,0.64,1.22,1.2
			C351.75,159.95,351.25,160.37,350.4,160.37z"/>
		<path d="M355.75,161.01c0.62,0,1.11-0.14,1.33-0.25l-0.14-0.59c-0.24,0.1-0.56,0.22-1.03,0.22c-0.92,0-1.61-0.62-1.61-1.62
			c0-0.91,0.58-1.64,1.64-1.64c0.46,0,0.78,0.1,0.98,0.21l0.19-0.61c-0.23-0.11-0.67-0.22-1.17-0.22c-1.51,0-2.49,0.97-2.49,2.31
			C353.44,160.13,354.35,161.01,355.75,161.01z"/>
		<path d="M358.91,158.3c0-0.15,0.01-0.27,0.06-0.38c0.15-0.43,0.58-0.79,1.13-0.79c0.79,0,1.07,0.59,1.07,1.29v2.49h0.84v-2.58
			c0-1.5-1-1.86-1.62-1.86c-0.32,0-0.61,0.09-0.86,0.22c-0.26,0.13-0.47,0.33-0.6,0.56h-0.02v-2.71h-0.84v6.37h0.84V158.3z"/>
		<path d="M365.33,161.01c0.74,0,1.25-0.14,1.54-0.27l-0.14-0.56c-0.32,0.13-0.68,0.22-1.28,0.22c-0.84,0-1.57-0.44-1.59-1.51h3.26
			c0.01-0.08,0.03-0.21,0.03-0.37c0-0.8-0.4-2.05-1.92-2.05c-1.35,0-2.17,1.03-2.17,2.34C363.05,160.14,363.9,161.01,365.33,161.01z
			 M365.16,157.05c0.95,0,1.18,0.78,1.17,1.28h-2.46C363.93,157.78,364.3,157.05,365.16,157.05z"/>
		<path d="M369.83,161.02c0.76,0,1.32-0.37,1.58-0.85h0.02l0.04,0.75h0.76c-0.03-0.3-0.04-0.74-0.04-1.12v-5.25h-0.84v2.59h-0.02
			c-0.21-0.35-0.69-0.66-1.4-0.66c-1.13,0-2.09,0.89-2.08,2.33C367.85,160.14,368.71,161.02,369.83,161.02z M370.09,157.1
			c0.63,0,1.09,0.41,1.22,0.92c0.03,0.1,0.04,0.23,0.04,0.33v0.75c0,0.13-0.01,0.23-0.04,0.34c-0.15,0.59-0.67,0.94-1.24,0.94
			c-0.91,0-1.37-0.73-1.37-1.61C368.7,157.82,369.22,157.1,370.09,157.1z"/>
		<path d="M375.16,161.02c0.82,0,1.31-0.46,1.53-0.81h0.02l0.05,0.71h0.75c-0.03-0.34-0.04-0.74-0.04-1.18v-3.16h-0.84v2.67
			c0,0.14-0.03,0.29-0.08,0.4c-0.15,0.35-0.55,0.72-1.11,0.72c-0.77,0-1.04-0.56-1.04-1.38v-2.4h-0.84v2.54
			C373.56,160.65,374.43,161.02,375.16,161.02z"/>
		<rect x="378.87" y="154.55" width="0.84" height="6.37"/>
		<path d="M383.08,161.01c0.74,0,1.25-0.14,1.54-0.27l-0.14-0.56c-0.32,0.13-0.68,0.22-1.28,0.22c-0.84,0-1.57-0.44-1.59-1.51h3.26
			c0.01-0.08,0.03-0.21,0.03-0.37c0-0.8-0.4-2.05-1.92-2.05c-1.35,0-2.17,1.03-2.17,2.34C380.8,160.14,381.65,161.01,383.08,161.01z
			 M382.91,157.05c0.95,0,1.18,0.78,1.17,1.28h-2.46C381.68,157.78,382.05,157.05,382.91,157.05z"/>
		<path d="M422.74,161.02c1.65,0,3-1.1,3-3.19c0-1.79-1.14-3.06-2.9-3.06c-1.73,0-3,1.26-3,3.18
			C419.83,159.79,421.03,161.02,422.74,161.02z M422.79,155.42c1.39,0,2.06,1.26,2.06,2.46c0,1.37-0.75,2.51-2.07,2.51
			c-1.31,0-2.06-1.16-2.06-2.45C420.72,156.61,421.41,155.42,422.79,155.42z"/>
		<path d="M426.79,160.92h0.84v-2.61c0-0.13,0.02-0.27,0.06-0.37c0.14-0.44,0.57-0.81,1.13-0.81c0.79,0,1.07,0.58,1.07,1.28v2.5
			h0.84v-2.59c0-1.49-1-1.85-1.64-1.85c-0.77,0-1.3,0.4-1.53,0.82h-0.02l-0.05-0.72h-0.75c0.03,0.36,0.04,0.73,0.04,1.18V160.92z"/>
		<polygon points="104.11,242.47 104.3,243.16 105.54,242.53 105.57,242.53 105.57,248.39 106.5,248.39 106.5,241.68 105.68,241.68 
					"/>
		<path d="M112.5,244.49c-0.44-0.25-0.99-0.36-1.54-0.36c-0.26,0-0.42,0.02-0.58,0.04l0.28-1.72h2.73v-0.76h-3.43l-0.46,3.22
			c0.26-0.03,0.58-0.07,0.99-0.07c1.43,0,2.05,0.62,2.06,1.49c0,0.9-0.78,1.45-1.7,1.45c-0.65,0-1.23-0.21-1.53-0.37l-0.24,0.69
			c0.34,0.21,1,0.41,1.78,0.41c1.55,0,2.67-0.98,2.67-2.29C113.53,245.37,113.07,244.79,112.5,244.49z"/>
		<path d="M117.15,241.57c-1.45,0-2.49,1.24-2.49,3.49c0.02,2.22,0.97,3.45,2.37,3.45c1.59,0,2.49-1.26,2.49-3.54
			C119.52,242.83,118.66,241.57,117.15,241.57z M117.08,247.8c-0.88,0-1.45-0.99-1.45-2.73c0-1.83,0.62-2.8,1.47-2.8
			c1,0,1.45,1.08,1.45,2.73C118.55,246.72,118.07,247.8,117.08,247.8z"/>
		<path d="M129.12,244.94c-0.23,0.87-0.44,1.64-0.59,2.4h-0.02c-0.11-0.73-0.31-1.56-0.52-2.38l-0.9-3.53h-1l-0.99,3.51
			c-0.25,0.9-0.48,1.72-0.61,2.41h-0.02c-0.13-0.67-0.33-1.54-0.55-2.4l-0.88-3.52h-1.01l1.88,6.95h1l1.06-3.62
			c0.28-0.9,0.44-1.58,0.57-2.27h0.02c0.1,0.7,0.25,1.38,0.48,2.27l0.94,3.62h1l2.1-6.95h-0.98L129.12,244.94z"/>
		<path d="M135.35,245.33c0-1-0.4-2.04-2.03-2.04c-0.67,0-1.31,0.17-1.75,0.44l0.22,0.6c0.37-0.23,0.89-0.37,1.39-0.37
			c1.09,0,1.21,0.74,1.21,1.16v0.1c-2.06-0.01-3.21,0.65-3.21,1.86c0,0.72,0.55,1.43,1.63,1.43c0.76,0,1.33-0.35,1.63-0.74h0.03
			l0.08,0.63h0.88c-0.07-0.34-0.09-0.76-0.09-1.2V245.33z M134.41,246.71c0,0.09-0.02,0.2-0.06,0.29c-0.15,0.42-0.6,0.84-1.29,0.84
			c-0.5,0-0.91-0.28-0.91-0.87c0-0.97,1.2-1.14,2.26-1.12V246.71z"/>
		<path d="M138.04,241.96l-0.95,0.24v1.2h-0.83v0.69h0.83v2.72c0,0.59,0.1,1.03,0.37,1.3c0.23,0.25,0.6,0.38,1.05,0.38
			c0.37,0,0.67-0.05,0.86-0.12l-0.04-0.68c-0.12,0.03-0.31,0.06-0.56,0.06c-0.54,0-0.73-0.35-0.73-0.97v-2.69h1.39v-0.69h-1.39
			V241.96z"/>
		<path d="M141.68,241.96l-0.95,0.24v1.2h-0.83v0.69h0.83v2.72c0,0.59,0.1,1.03,0.37,1.3c0.23,0.25,0.6,0.38,1.05,0.38
			c0.37,0,0.67-0.05,0.86-0.12l-0.04-0.68c-0.12,0.03-0.31,0.06-0.56,0.06c-0.54,0-0.73-0.35-0.73-0.97v-2.69h1.39v-0.69h-1.39
			V241.96z"/>
		<path d="M145.87,245.49c-0.69-0.25-1.01-0.43-1.01-0.85c0-0.37,0.32-0.68,0.89-0.68c0.5,0,0.88,0.17,1.09,0.29l0.24-0.66
			c-0.3-0.17-0.77-0.31-1.31-0.31c-1.15,0-1.84,0.66-1.84,1.46c0,0.6,0.45,1.09,1.41,1.41c0.72,0.25,0.99,0.49,0.99,0.92
			c0,0.41-0.33,0.74-1.04,0.74c-0.48,0-0.99-0.19-1.28-0.36l-0.24,0.69c0.37,0.21,0.91,0.34,1.5,0.34c1.27,0,1.99-0.62,1.99-1.5
			C147.27,246.25,146.8,245.82,145.87,245.49z"/>
		<path d="M362.28,224.21l0.58-1.64h1.97l0.59,1.64h0.77l-1.9-5.2h-0.87l-1.89,5.2H362.28z M363.55,220.54
			c0.11-0.32,0.2-0.63,0.28-0.94h0.02c0.08,0.3,0.17,0.61,0.29,0.95l0.54,1.5H363L363.55,220.54z"/>
		<path d="M368.94,220.47l-0.65,1.91c-0.13,0.4-0.26,0.8-0.35,1.18h-0.02c-0.07-0.39-0.18-0.77-0.3-1.19l-0.53-1.9h-0.74l1.2,3.74
			h0.66l0.64-1.78c0.14-0.4,0.26-0.79,0.36-1.24h0.02c0.1,0.44,0.21,0.81,0.35,1.23l0.61,1.78h0.66l1.29-3.74h-0.72l-0.57,1.88
			c-0.13,0.44-0.24,0.83-0.3,1.21h-0.02c-0.09-0.38-0.21-0.77-0.35-1.22l-0.62-1.87H368.94z"/>
		<path d="M372.52,223.22c0,0.54,0.41,1.07,1.22,1.07c0.57,0,1-0.26,1.22-0.56h0.02l0.06,0.47h0.66c-0.05-0.25-0.07-0.57-0.07-0.9
			v-1.4c0-0.75-0.3-1.53-1.52-1.53c-0.5,0-0.98,0.13-1.31,0.33l0.16,0.45c0.28-0.17,0.67-0.28,1.04-0.28c0.82,0,0.91,0.56,0.91,0.87
			v0.08C373.38,221.83,372.52,222.32,372.52,223.22z M374.94,222.3v0.65c0,0.07-0.02,0.15-0.04,0.22c-0.12,0.32-0.44,0.62-0.96,0.62
			c-0.37,0-0.68-0.21-0.68-0.65C373.25,222.42,374.14,222.29,374.94,222.3z"/>
		<path d="M378.15,223.45h-0.02c-0.07-0.22-0.17-0.52-0.26-0.76l-0.87-2.21h-0.79l1.47,3.44c0.03,0.08,0.05,0.14,0.05,0.18
			c0,0.04-0.02,0.09-0.06,0.16c-0.17,0.35-0.41,0.61-0.61,0.76c-0.21,0.17-0.45,0.28-0.63,0.33l0.18,0.57
			c0.18-0.03,0.54-0.15,0.89-0.44c0.49-0.4,0.85-1.06,1.37-2.34l1.09-2.66h-0.77l-0.79,2.19
			C378.31,222.94,378.22,223.22,378.15,223.45z"/>
		<path d="M359.27,270.59h0.74l0.58-1.64h1.97l0.59,1.64h0.77l-1.9-5.2h-0.87L359.27,270.59z M361.56,265.98h0.02
			c0.08,0.3,0.17,0.61,0.29,0.95l0.54,1.5h-1.67l0.54-1.5C361.38,266.6,361.47,266.29,361.56,265.98z"/>
		<path d="M365.51,270.16c-0.36,0-0.74-0.14-0.96-0.27l-0.18,0.52c0.28,0.15,0.68,0.25,1.12,0.25c0.95,0,1.49-0.46,1.49-1.12
			c0-0.56-0.35-0.88-1.05-1.13c-0.52-0.18-0.76-0.32-0.76-0.63c0-0.28,0.24-0.51,0.67-0.51c0.37,0,0.66,0.12,0.82,0.22l0.18-0.49
			c-0.22-0.12-0.58-0.23-0.98-0.23c-0.86,0-1.38,0.49-1.38,1.1c0,0.45,0.34,0.82,1.05,1.06c0.54,0.19,0.74,0.36,0.74,0.69
			C366.29,269.92,366.04,270.16,365.51,270.16z"/>
		<rect x="367.92" y="265.11" width="0.72" height="5.48"/>
		<path d="M371.54,270.66c0.63,0,1.07-0.12,1.33-0.23l-0.12-0.49c-0.27,0.11-0.58,0.19-1.1,0.19c-0.72,0-1.35-0.38-1.37-1.3h2.8
			c0.01-0.07,0.02-0.18,0.02-0.32c0-0.69-0.35-1.76-1.65-1.76c-1.16,0-1.87,0.89-1.87,2.02S370.31,270.66,371.54,270.66z
			 M371.39,267.25c0.82,0,1.01,0.67,1,1.1h-2.12C370.34,267.88,370.66,267.25,371.39,267.25z"/>
		<path d="M375.58,266.76c-1.16,0-1.87,0.89-1.87,2.02s0.73,1.88,1.96,1.88c0.63,0,1.07-0.12,1.33-0.23l-0.12-0.49
			c-0.27,0.11-0.58,0.19-1.1,0.19c-0.73,0-1.35-0.38-1.37-1.3h2.8c0.01-0.07,0.02-0.18,0.02-0.32
			C377.22,267.84,376.88,266.76,375.58,266.76z M374.41,268.36c0.06-0.47,0.38-1.1,1.11-1.1c0.82,0,1.01,0.67,1,1.1H374.41z"/>
		<path d="M378.77,267.49l-0.03-0.64h-0.65c0.02,0.36,0.03,0.74,0.03,1.22v4.04h0.72v-2.03h0.02c0.24,0.37,0.7,0.59,1.23,0.59
			c0.94,0,1.81-0.66,1.81-2.01c0-1.13-0.72-1.9-1.69-1.9c-0.65,0-1.12,0.27-1.42,0.73H378.77z M378.84,268.42
			c0-0.09,0.02-0.19,0.05-0.28c0.14-0.51,0.6-0.84,1.1-0.84c0.77,0,1.19,0.64,1.19,1.39c0,0.86-0.45,1.44-1.21,1.44
			c-0.52,0-0.96-0.32-1.09-0.79c-0.02-0.08-0.03-0.18-0.03-0.28V268.42z"/>
		<polygon points="433.23,221.19 430.54,221.19 430.54,219.01 429.82,219.01 429.82,224.21 430.54,224.21 430.54,221.77 
			433.23,221.77 433.23,224.21 433.95,224.21 433.95,219.01 433.23,219.01 		"/>
		<path d="M436.86,220.39c-1.1,0-1.98,0.73-1.98,1.98c0,1.18,0.83,1.92,1.91,1.92c0.96,0,1.99-0.6,1.99-1.98
			C438.78,221.17,438.01,220.39,436.86,220.39z M436.83,223.79c-0.71,0-1.21-0.62-1.21-1.44c0-0.71,0.37-1.45,1.23-1.45
			c0.86,0,1.19,0.8,1.19,1.44C438.04,223.18,437.52,223.79,436.83,223.79z"/>
		<path d="M444.08,220.39c-0.38,0-0.64,0.09-0.88,0.26c-0.17,0.12-0.32,0.28-0.45,0.49h-0.02c-0.17-0.44-0.58-0.75-1.13-0.75
			c-0.66,0-1.03,0.33-1.25,0.69h-0.02l-0.03-0.6h-0.63c0.02,0.31,0.03,0.63,0.03,1.01v2.73h0.71v-2.25c0-0.12,0.02-0.23,0.06-0.33
			c0.12-0.34,0.44-0.68,0.9-0.68c0.55,0,0.83,0.43,0.83,1.03v2.24h0.71v-2.31c0-0.12,0.02-0.25,0.06-0.34
			c0.12-0.33,0.45-0.62,0.86-0.62c0.58,0,0.87,0.43,0.87,1.15v2.12h0.71v-2.2C445.39,220.71,444.61,220.39,444.08,220.39z"/>
		<path d="M448.15,220.39c-1.16,0-1.87,0.89-1.87,2.02s0.73,1.88,1.96,1.88c0.63,0,1.07-0.12,1.33-0.23l-0.12-0.49
			c-0.27,0.11-0.58,0.19-1.1,0.19c-0.73,0-1.35-0.38-1.37-1.3h2.8c0.01-0.07,0.02-0.18,0.02-0.32
			C449.8,221.46,449.45,220.39,448.15,220.39z M446.98,221.98c0.06-0.47,0.38-1.1,1.11-1.1c0.82,0,1.01,0.67,1,1.1H446.98z"/>
		<path d="M95.09,126.15l1.1,1.43c1.76-1.44,2.75-2.25,2.96-2.44c0.22-0.19,0.41-0.38,0.59-0.55c-0.07,0.97-0.1,2-0.1,3.08v13.05
			h2.02v-18.31h-1.74L95.09,126.15z"/>
		<path d="M109.66,126.15l1.1,1.43c1.76-1.44,2.75-2.25,2.96-2.44c0.22-0.19,0.41-0.38,0.58-0.55c-0.07,0.97-0.1,2-0.1,3.08v13.05
			h2.02v-18.31h-1.74L109.66,126.15z"/>
		<path d="M125.26,126.64c-0.98,0-1.47,0.56-1.47,1.69c0,0.6,0.14,1.03,0.42,1.3c0.28,0.26,0.63,0.39,1.05,0.39
			c0.47,0,0.85-0.15,1.12-0.44c0.27-0.29,0.41-0.71,0.41-1.25C126.79,127.21,126.28,126.64,125.26,126.64z"/>
		<path d="M125.26,137.69c-0.47,0-0.84,0.14-1.09,0.43c-0.25,0.29-0.38,0.71-0.38,1.27c0,0.6,0.14,1.03,0.42,1.3
			c0.28,0.26,0.63,0.39,1.05,0.39c0.47,0,0.85-0.15,1.12-0.44c0.27-0.29,0.41-0.71,0.41-1.25c0-0.56-0.14-0.98-0.4-1.27
			C126.11,137.84,125.74,137.69,125.26,137.69z"/>
		<path d="M132.52,138.69l3.98-3.92c1.78-1.74,2.99-3.17,3.63-4.31c0.65-1.14,0.97-2.28,0.97-3.44c0-1.49-0.49-2.67-1.46-3.55
			c-0.97-0.88-2.31-1.32-4.02-1.32c-1.97,0-3.8,0.7-5.47,2.1l1.09,1.42c0.83-0.66,1.58-1.11,2.26-1.37
			c0.68-0.25,1.39-0.38,2.15-0.38c1.05,0,1.86,0.29,2.45,0.86c0.59,0.57,0.88,1.35,0.88,2.32c0,0.69-0.12,1.34-0.35,1.94
			c-0.23,0.6-0.58,1.22-1.05,1.85c-0.46,0.63-1.43,1.7-2.89,3.18l-4.79,4.85v1.79h11.96v-1.93h-9.36V138.69z"/>
		<path d="M150.18,129.54c-0.95,0-1.9,0.1-2.85,0.29l0.46-5.5h7.28v-1.92h-9.05l-0.68,8.57l1.07,0.69c1.32-0.24,2.37-0.36,3.16-0.36
			c3.11,0,4.67,1.28,4.67,3.83c0,1.31-0.4,2.31-1.21,3.01c-0.81,0.69-1.94,1.04-3.4,1.04c-0.84,0-1.69-0.11-2.55-0.32
			c-0.86-0.21-1.58-0.51-2.17-0.88v2c1.08,0.66,2.64,0.99,4.69,0.99c2.11,0,3.76-0.54,4.96-1.62c1.2-1.08,1.8-2.56,1.8-4.46
			c0-1.66-0.55-2.97-1.65-3.93C153.61,130.01,152.1,129.54,150.18,129.54z"/>
		<path d="M242.33,247.5l1.71-1.57c0.76-0.7,1.28-1.27,1.56-1.72c0.28-0.46,0.42-0.91,0.42-1.38c0-0.59-0.21-1.07-0.63-1.42
			c-0.42-0.35-0.99-0.53-1.73-0.53c-0.85,0-1.63,0.28-2.35,0.84l0.47,0.57c0.36-0.26,0.68-0.45,0.97-0.55
			c0.29-0.1,0.6-0.15,0.92-0.15c0.45,0,0.8,0.11,1.05,0.34c0.25,0.23,0.38,0.54,0.38,0.93c0,0.28-0.05,0.54-0.15,0.78
			c-0.1,0.24-0.25,0.49-0.45,0.74c-0.2,0.25-0.61,0.68-1.24,1.27l-2.06,1.94v0.72h5.14v-0.77h-4.02V247.5z"/>
		<path d="M247.84,247.12c-0.05,0.31-0.13,0.72-0.24,1.23c-0.12,0.51-0.22,0.94-0.32,1.29h0.67c0.19-0.38,0.37-0.79,0.55-1.24
			c0.17-0.44,0.31-0.83,0.4-1.17l-0.08-0.12H247.84z"/>
		<path d="M252.61,243.83c-0.41,0-0.81,0.04-1.23,0.12l0.2-2.2h3.13v-0.77h-3.89l-0.29,3.43l0.46,0.28c0.57-0.1,1.02-0.15,1.36-0.15
			c1.34,0,2.01,0.51,2.01,1.53c0,0.52-0.17,0.92-0.52,1.2c-0.35,0.28-0.84,0.42-1.46,0.42c-0.36,0-0.73-0.04-1.1-0.13
			c-0.37-0.08-0.68-0.2-0.93-0.35v0.8c0.46,0.26,1.14,0.4,2.02,0.4c0.91,0,1.62-0.22,2.13-0.65c0.52-0.43,0.77-1.03,0.77-1.78
			c0-0.66-0.24-1.19-0.71-1.57C254.08,244.02,253.43,243.83,252.61,243.83z"/>
		<path d="M266.07,242.72c-0.42,0-0.8,0.08-1.13,0.25c-0.33,0.17-0.59,0.39-0.76,0.68h-0.04c-0.28-0.62-0.88-0.93-1.8-0.93
			c-0.38,0-0.72,0.08-1.02,0.23c-0.31,0.15-0.54,0.36-0.71,0.63h-0.04l-0.14-0.75h-0.72v5.49h0.89v-2.88c0-0.71,0.13-1.22,0.39-1.54
			c0.26-0.31,0.67-0.47,1.22-0.47c0.42,0,0.74,0.11,0.94,0.33c0.2,0.22,0.3,0.55,0.3,0.99v3.57h0.89v-3.07
			c0-0.62,0.13-1.08,0.4-1.37c0.26-0.3,0.67-0.45,1.23-0.45c0.42,0,0.73,0.11,0.93,0.33c0.2,0.22,0.3,0.55,0.3,0.99v3.57h0.89v-3.58
			c0-0.7-0.16-1.21-0.5-1.53C267.23,242.88,266.73,242.72,266.07,242.72z"/>
		<path d="M271.49,243.05c0.24-0.08,0.44-0.2,0.58-0.37c0.15-0.17,0.22-0.39,0.22-0.66c0-0.36-0.14-0.63-0.42-0.83
			c-0.28-0.2-0.66-0.3-1.15-0.3c-0.34,0-0.63,0.04-0.88,0.13c-0.25,0.09-0.49,0.21-0.71,0.36l0.37,0.45c0.2-0.12,0.4-0.21,0.6-0.28
			c0.2-0.07,0.42-0.11,0.65-0.11c0.24,0,0.43,0.06,0.57,0.17c0.14,0.11,0.21,0.27,0.21,0.48c0,0.23-0.09,0.41-0.26,0.54
			c-0.18,0.13-0.45,0.2-0.82,0.2h-0.64v0.54h0.63c0.82,0,1.24,0.24,1.24,0.73c0,0.54-0.38,0.81-1.13,0.81
			c-0.44,0-0.92-0.11-1.45-0.34v0.62c0.41,0.19,0.89,0.28,1.43,0.28c0.6,0,1.06-0.12,1.39-0.36c0.33-0.24,0.49-0.57,0.49-1
			C272.43,243.56,272.12,243.21,271.49,243.05z"/>
		<path d="M244.74,156.05l0.47,0.57c0.76-0.57,1.18-0.9,1.27-0.98c0.09-0.08,0.18-0.15,0.25-0.22c-0.03,0.39-0.04,0.8-0.04,1.23
			v5.22h0.87v-7.33h-0.75L244.74,156.05z"/>
		<path d="M254.89,154.51h-0.94l-3.71,4.96v0.73h3.81v1.68h0.85v-1.68h1.16v-0.76h-1.16V154.51z M254.04,157v2.43h-2.92l2.45-3.26
			c0.15-0.21,0.31-0.48,0.48-0.8h0.04C254.05,155.98,254.04,156.52,254.04,157z"/>
		<path d="M257.17,160.68c-0.05,0.31-0.13,0.72-0.24,1.23c-0.12,0.51-0.22,0.94-0.32,1.29h0.67c0.19-0.38,0.37-0.79,0.55-1.23
			c0.17-0.44,0.31-0.83,0.4-1.17l-0.08-0.12H257.17z"/>
		<path d="M261.94,157.4c-0.41,0-0.81,0.04-1.23,0.12l0.2-2.2h3.13v-0.77h-3.89l-0.29,3.43l0.46,0.28c0.57-0.1,1.02-0.15,1.36-0.15
			c1.34,0,2.01,0.51,2.01,1.53c0,0.52-0.17,0.93-0.52,1.2c-0.35,0.28-0.84,0.42-1.46,0.42c-0.36,0-0.73-0.04-1.1-0.13
			c-0.37-0.08-0.68-0.2-0.93-0.35v0.8c0.46,0.26,1.14,0.4,2.02,0.4c0.91,0,1.62-0.22,2.13-0.65c0.52-0.43,0.77-1.03,0.77-1.78
			c0-0.66-0.24-1.19-0.71-1.57C263.41,157.59,262.76,157.4,261.94,157.4z"/>
		<path d="M267.57,154.44c-0.46,0-0.86,0.15-1.18,0.46c-0.32,0.3-0.48,0.67-0.48,1.11c0,0.44,0.16,0.81,0.48,1.11
			c0.32,0.3,0.72,0.45,1.18,0.45c0.3,0,0.58-0.07,0.84-0.21c0.26-0.14,0.46-0.33,0.61-0.57c0.15-0.24,0.22-0.5,0.22-0.78
			c0-0.44-0.16-0.81-0.49-1.11C268.42,154.59,268.03,154.44,267.57,154.44z M268.31,156.71c-0.21,0.19-0.45,0.28-0.74,0.28
			c-0.29,0-0.54-0.1-0.75-0.29c-0.21-0.19-0.31-0.42-0.31-0.7c0-0.28,0.1-0.51,0.31-0.7c0.21-0.19,0.46-0.29,0.75-0.29
			c0.29,0,0.54,0.09,0.74,0.28c0.2,0.19,0.3,0.42,0.3,0.7C268.62,156.28,268.52,156.52,268.31,156.71z"/>
		<path d="M251.89,117.25c0.01,0,0.01,0.01,0.01,0.01c0,0,0.01,0,0.02,0L251.89,117.25z"/>
		<path d="M270.49,128.11c0-0.11,0.01-0.22,0.01-0.33c0-4.45-3.86-8.08-8.59-8.08c-2.46,0-4.73,0.99-6.34,2.67
			c0.65-0.86,1.59-1.65,1.18-2.08c-0.62-0.66-2.92,1.91-4.3,1.02c-1.37-0.89,0.38-3.72-0.54-4.05c-0.91-0.25-1.27,2.82-3.06,2.87
			c-1.8,0.05-1.83-3.41-2.78-3.23c-0.82,0.15,0.33,3.32-1.21,3.98c-1.54,0.66-3.4-2.15-4.04-1.51c-0.63,0.64,1.95,2.47,1.15,3.87
			c-0.79,1.4-4.07-0.16-4.37,0.69c-0.3,0.82,3.19,1.36,3.05,2.92c-0.15,1.56-3.6,1.57-3.4,2.51c0.19,0.87,3.53-0.29,4.2,1.15
			c0.67,1.44-2.28,3.06-1.65,3.75c0.25,0.27,0.8-0.01,1.46-0.37c-0.32,0.72-0.48,1.48-0.48,2.25c0,3.33,2.89,6.05,6.43,6.05h22.17
			c4.15,0,7.52-3.18,7.52-7.08C276.91,131.6,274.13,128.62,270.49,128.11z M269.39,141.19h-22.17c-3,0-5.43-2.27-5.43-5.05
			c0-0.83,0.23-1.64,0.67-2.4c0.83-1.42,2.33-2.39,4.02-2.61l0.59-0.08l-0.17-0.57c-0.12-0.39-0.18-0.8-0.18-1.22
			c0-2.46,2.16-4.47,4.81-4.47c0.91,0,1.81,0.24,2.58,0.7l0.5,0.29l0.22-0.53c0.15-0.36,0.35-0.74,0.63-1.17
			c1.4-2.12,3.81-3.39,6.46-3.39c4.19,0,7.59,3.18,7.59,7.08c0,0.24-0.02,0.48-0.04,0.72l-0.06,0.51l0.51,0.04
			c3.36,0.25,5.99,2.91,5.99,6.06C275.91,138.46,272.98,141.19,269.39,141.19z"/>
		<path d="M79.27,272.31c0-0.25-0.09-0.46-0.28-0.65c-0.2-0.17-0.43-0.26-0.68-0.26c-0.26,0-0.49,0.09-0.69,0.26l-4.51,4.28
			l-0.02,0.02c-0.2,0.19-0.3,0.4-0.3,0.65c0,0.24,0.1,0.46,0.3,0.65l4.51,4.26c0.18,0.17,0.41,0.26,0.67,0.26
			c0.27,0,0.49-0.09,0.68-0.26c0.18-0.17,0.28-0.39,0.28-0.64c0-0.25-0.09-0.46-0.28-0.64l-3.85-3.63l3.88-3.65
			C79.18,272.77,79.27,272.56,79.27,272.31z"/>
		<path d="M306.7,275.95l-4.51-4.28c-0.2-0.17-0.42-0.26-0.68-0.26c-0.26,0-0.49,0.09-0.68,0.26c-0.18,0.19-0.28,0.4-0.28,0.65
			c0,0.25,0.09,0.46,0.28,0.65l3.88,3.65l-3.85,3.63c-0.18,0.17-0.28,0.39-0.28,0.64c0,0.25,0.09,0.46,0.28,0.64
			c0.19,0.17,0.41,0.26,0.68,0.26c0.26,0,0.49-0.09,0.67-0.26l4.51-4.26c0.2-0.19,0.29-0.4,0.29-0.65c0-0.24-0.1-0.46-0.29-0.65
			L306.7,275.95z"/>
		<path d="M428.84,146.12h44.86v-29.56h-44.86V146.12z M429.84,117.55h42.86v27.56h-42.86V117.55z"/>
		<path d="M470.46,86.95h-41.62v28.55h44.86V90.01C473.7,88.32,472.25,86.95,470.46,86.95z M472.7,114.5h-42.86V87.95h40.62
			c1.24,0,2.24,0.93,2.24,2.07V114.5z"/>
		<path d="M427.66,86.95h-87.65c-1.79,0-3.24,1.38-3.24,3.07v56.1h90.89V86.95z M426.66,145.11h-88.89v-55.1
			c0-1.14,1-2.07,2.24-2.07h86.65V145.11z"/>
		<path d="M353.14,114.66c0.23-0.19,0.44-0.38,0.63-0.55c-0.07,0.97-0.11,2-0.11,3.08v13.05h2.17v-18.31h-1.87l-5.18,3.75l1.18,1.43
			C351.84,115.67,352.9,114.85,353.14,114.66z"/>
		<path d="M368.99,123.34c1.02,0,1.93-0.18,2.74-0.54c0.81-0.36,1.46-0.89,1.95-1.58h0.16c-0.1,2.56-0.69,4.47-1.79,5.71
			c-1.09,1.24-2.71,1.86-4.85,1.86c-0.91,0-1.72-0.11-2.44-0.33v1.79c0.61,0.17,1.43,0.25,2.46,0.25c5.92,0,8.88-3.58,8.88-10.75
			c0-1.66-0.27-3.1-0.8-4.33c-0.54-1.22-1.3-2.15-2.29-2.79c-1-0.64-2.16-0.96-3.49-0.96c-1.86,0-3.35,0.55-4.49,1.65
			c-1.14,1.1-1.71,2.61-1.71,4.51c0,1.74,0.51,3.09,1.53,4.06C365.89,122.86,367.26,123.34,368.99,123.34z M366.58,114.6
			c0.7-0.77,1.68-1.15,2.96-1.15c0.85,0,1.6,0.21,2.25,0.64c0.66,0.43,1.17,1.01,1.53,1.75c0.37,0.74,0.55,1.55,0.55,2.43
			c0,0.59-0.2,1.14-0.59,1.68c-0.39,0.53-0.93,0.96-1.61,1.27c-0.68,0.31-1.43,0.46-2.24,0.46c-1.31,0-2.29-0.34-2.93-1.03
			c-0.64-0.69-0.96-1.63-0.96-2.84C365.54,116.43,365.89,115.37,366.58,114.6z"/>
		<path d="M381.48,130.46c0.44-1.11,0.77-2.08,1-2.91l-0.2-0.29h-2.44c-0.12,0.77-0.32,1.79-0.61,3.07
			c-0.29,1.28-0.55,2.35-0.8,3.22h1.67C380.58,132.6,381.04,131.57,381.48,130.46z"/>
		<path d="M392.13,130.49c2.19,0,3.82-0.78,4.89-2.34c1.07-1.56,1.6-3.93,1.6-7.09c0-3.06-0.55-5.39-1.65-7
			c-1.1-1.61-2.71-2.42-4.84-2.42c-2.18,0-3.8,0.77-4.86,2.32c-1.06,1.54-1.59,3.91-1.59,7.1c0,3.09,0.55,5.43,1.65,7.03
			C388.42,129.69,390.02,130.49,392.13,130.49z M388.93,115.25c0.67-1.21,1.74-1.81,3.2-1.81c1.48,0,2.55,0.61,3.22,1.83
			c0.66,1.22,1,3.15,1,5.78c0,2.63-0.33,4.56-1,5.79c-0.67,1.23-1.74,1.85-3.22,1.85c-1.46,0-2.53-0.61-3.2-1.82
			c-0.67-1.21-1-3.15-1-5.82C387.93,118.4,388.26,116.46,388.93,115.25z"/>
		<path d="M405.84,119.47c0.75,0,1.45-0.18,2.1-0.53c0.65-0.35,1.16-0.82,1.53-1.42c0.37-0.6,0.55-1.25,0.55-1.95
			c0-1.09-0.41-2.02-1.22-2.77c-0.81-0.76-1.8-1.13-2.96-1.13c-1.16,0-2.14,0.38-2.95,1.14c-0.81,0.76-1.21,1.68-1.21,2.77
			c0,1.09,0.4,2.02,1.21,2.77C403.7,119.09,404.68,119.47,405.84,119.47z M403.99,113.82c0.51-0.48,1.14-0.71,1.88-0.71
			c0.73,0,1.35,0.24,1.85,0.71c0.5,0.47,0.76,1.06,0.76,1.76c0,0.69-0.26,1.28-0.77,1.75c-0.51,0.47-1.13,0.71-1.84,0.71
			c-0.72,0-1.34-0.24-1.87-0.71c-0.52-0.48-0.78-1.06-0.78-1.74C403.22,114.88,403.48,114.3,403.99,113.82z"/>
		<path d="M415.64,102.94c0,2.37,1.45,4.32,3.35,4.68c-0.33-0.43-0.54-1.19-0.54-1.99c0-1.23,0.51-1.63,1.14-1.63
			c0.63,0,1.14,0.4,1.14,1.63c0,0.81-0.22,1.57-0.55,2c1.92-0.33,3.41-2.3,3.41-4.69c0-4.6-2.26-7.39-2.26-7.39s0,0.58-0.25,1.22
			c-0.21,0.54-0.63,0.93-0.63,0.93c-0.55-3.89-3.53-4.64-3.53-4.64s0.71,1.31,0.44,3.6C416.97,99.89,415.64,100.69,415.64,102.94z"
			/>
		<polygon points="451.96,96.96 450.58,96.96 450.58,101.09 446.19,101.09 446.19,102.38 450.58,102.38 450.58,106.51 
			451.96,106.51 451.96,102.38 456.35,102.38 456.35,101.09 451.96,101.09 		"/>
		<rect x="448.36" y="131.88" width="5.83" height="1.47"/>
		<path d="M336.78,196.24v42.23h67.86v-45.3h-64.62C338.23,193.18,336.78,194.55,336.78,196.24z M403.64,237.48h-65.86v-41.23
			c0-1.14,1-2.07,2.24-2.07h63.62V237.48z"/>
		<path d="M336.78,281.93c0,1.69,1.45,3.07,3.24,3.07h64.62v-45.47h-67.86V281.93z M337.78,240.53h65.86V284h-63.62
			c-1.24,0-2.24-0.93-2.24-2.07V240.53z"/>
		<path d="M405.83,285h64.62c1.79,0,3.24-1.38,3.24-3.07v-42.4h-67.87V285z M406.83,240.53h65.87v41.4c0,1.14-1,2.07-2.24,2.07
			h-63.62V240.53z"/>
		<path d="M470.46,193.18h-64.62v45.3h67.87v-42.23C473.7,194.55,472.25,193.18,470.46,193.18z M472.7,237.48h-65.87v-43.3h63.62
			c1.24,0,2.24,0.93,2.24,2.07V237.48z"/>
		<path d="M360.43,208.35c0.12-0.1,0.22-0.19,0.3-0.27c-0.03,0.33-0.04,0.78-0.04,1.34v4.73h1.26v-7.33h-1.05l-2.3,1.69l0.63,0.75
			C359.91,208.75,360.31,208.45,360.43,208.35z"/>
		<path d="M369.82,213.12h-3.71v-0.05l1.36-1.23c0.61-0.54,1.05-0.96,1.31-1.28c0.26-0.32,0.46-0.62,0.58-0.92
			c0.13-0.3,0.19-0.61,0.19-0.94c0-0.6-0.22-1.08-0.66-1.44c-0.44-0.36-1.02-0.53-1.75-0.53c-0.46,0-0.9,0.07-1.31,0.21
			c-0.41,0.14-0.83,0.39-1.27,0.73l0.68,0.78c0.37-0.27,0.69-0.46,0.97-0.56c0.28-0.1,0.57-0.16,0.87-0.16
			c0.37,0,0.67,0.09,0.88,0.29c0.21,0.19,0.32,0.45,0.32,0.78c0,0.24-0.04,0.47-0.13,0.68c-0.09,0.21-0.23,0.43-0.43,0.67
			c-0.19,0.24-0.59,0.64-1.19,1.21l-2.02,1.9v0.89h5.3V213.12z"/>
		<path d="M372.49,213.08l-0.08-0.12h-1.24c-0.12,0.77-0.31,1.61-0.55,2.52h0.93C372.01,214.5,372.32,213.7,372.49,213.08z"/>
		<path d="M376.34,214.26c0.9,0,1.57-0.31,2-0.93c0.44-0.62,0.66-1.56,0.66-2.84c0-1.24-0.23-2.17-0.67-2.82
			c-0.45-0.64-1.11-0.96-1.99-0.96c-0.9,0-1.56,0.31-2,0.92c-0.44,0.61-0.66,1.57-0.66,2.86c0,1.23,0.22,2.17,0.67,2.81
			C374.81,213.94,375.47,214.26,376.34,214.26z M375.29,208.35c0.22-0.43,0.57-0.65,1.05-0.65c0.48,0,0.83,0.22,1.06,0.66
			c0.22,0.44,0.34,1.15,0.34,2.13c0,0.99-0.11,1.7-0.34,2.13c-0.22,0.43-0.58,0.65-1.06,0.65c-0.48,0-0.83-0.21-1.05-0.64
			c-0.22-0.43-0.33-1.14-0.33-2.14C374.96,209.5,375.07,208.78,375.29,208.35z"/>
		<path d="M381.54,210.3c0.56,0,1-0.16,1.31-0.48c0.31-0.32,0.47-0.75,0.47-1.3c0-0.55-0.16-0.99-0.47-1.31
			c-0.31-0.32-0.74-0.47-1.28-0.47c-0.55,0-0.98,0.16-1.29,0.47c-0.32,0.31-0.47,0.75-0.47,1.31c0,0.54,0.16,0.98,0.47,1.29
			C380.58,210.14,381.01,210.3,381.54,210.3z M380.87,207.69c0.14-0.18,0.37-0.27,0.68-0.27c0.31,0,0.54,0.09,0.68,0.27
			c0.14,0.18,0.21,0.46,0.21,0.84c0,0.37-0.07,0.65-0.21,0.83c-0.14,0.18-0.37,0.28-0.68,0.28c-0.31,0-0.54-0.09-0.68-0.28
			c-0.14-0.18-0.21-0.46-0.21-0.83C380.66,208.15,380.73,207.87,380.87,207.69z"/>
		<path d="M360.43,254.79c0.12-0.1,0.22-0.19,0.3-0.27c-0.03,0.33-0.04,0.78-0.04,1.34v4.73h1.26v-7.33h-1.05l-2.3,1.69l0.63,0.75
			C359.91,255.19,360.31,254.88,360.43,254.79z"/>
		<path d="M368.95,260.04c0.52-0.44,0.78-1.05,0.78-1.83c0-0.67-0.23-1.21-0.69-1.6c-0.46-0.39-1.08-0.59-1.87-0.59
			c-0.26,0-0.48,0.01-0.66,0.04c-0.18,0.03-0.33,0.05-0.46,0.07l0.18-1.81h2.96v-1.05h-4.07l-0.3,3.58l0.56,0.31
			c0.19-0.04,0.4-0.08,0.65-0.11c0.25-0.03,0.45-0.05,0.62-0.05c1.19,0,1.79,0.44,1.79,1.31c0,0.46-0.15,0.81-0.44,1.04
			c-0.3,0.24-0.73,0.36-1.3,0.36c-0.32,0-0.67-0.04-1.04-0.12c-0.38-0.08-0.71-0.2-1-0.36v1.07c0.5,0.26,1.19,0.4,2.06,0.4
			C367.68,260.7,368.42,260.48,368.95,260.04z"/>
		<path d="M372.49,259.52l-0.08-0.12h-1.24c-0.12,0.77-0.31,1.61-0.55,2.52h0.93C372.01,260.94,372.32,260.14,372.49,259.52z"/>
		<path d="M376.34,260.7c0.9,0,1.57-0.31,2-0.93c0.44-0.62,0.66-1.56,0.66-2.84c0-1.24-0.23-2.17-0.67-2.82
			c-0.45-0.64-1.11-0.96-1.99-0.96c-0.9,0-1.56,0.31-2,0.92c-0.44,0.61-0.66,1.57-0.66,2.86c0,1.23,0.22,2.17,0.67,2.81
			C374.81,260.38,375.47,260.7,376.34,260.7z M375.29,254.79c0.22-0.43,0.57-0.65,1.05-0.65c0.48,0,0.83,0.22,1.06,0.66
			c0.22,0.44,0.34,1.15,0.34,2.13c0,0.99-0.11,1.7-0.34,2.13c-0.22,0.43-0.58,0.65-1.06,0.65c-0.48,0-0.83-0.21-1.05-0.64
			c-0.22-0.43-0.33-1.14-0.33-2.14S375.07,255.22,375.29,254.79z"/>
		<path d="M381.54,256.74c0.56,0,1-0.16,1.31-0.48s0.47-0.75,0.47-1.3c0-0.55-0.16-0.99-0.47-1.31c-0.31-0.32-0.74-0.47-1.28-0.47
			c-0.55,0-0.98,0.16-1.29,0.47c-0.32,0.31-0.47,0.75-0.47,1.31c0,0.54,0.16,0.98,0.47,1.29
			C380.58,256.58,381.01,256.74,381.54,256.74z M380.87,254.12c0.14-0.18,0.37-0.27,0.68-0.27c0.31,0,0.54,0.09,0.68,0.27
			c0.14,0.18,0.21,0.46,0.21,0.84c0,0.37-0.07,0.65-0.21,0.83c-0.14,0.18-0.37,0.28-0.68,0.28c-0.31,0-0.54-0.09-0.68-0.28
			c-0.14-0.18-0.21-0.46-0.21-0.83C380.66,254.58,380.73,254.31,380.87,254.12z"/>
		<path d="M427.18,265.64c0.44,0,0.89,0.1,1.33,0.29l0.29-0.55c-0.46-0.21-1-0.32-1.61-0.32c-0.58,0-1.08,0.12-1.51,0.35
			c-0.43,0.23-0.75,0.56-0.98,0.98c-0.23,0.43-0.34,0.92-0.34,1.49c0,0.9,0.23,1.6,0.7,2.09c0.47,0.49,1.14,0.74,2,0.74
			c0.6,0,1.1-0.07,1.51-0.21v-0.56c-0.52,0.14-0.99,0.21-1.4,0.21c-0.67,0-1.18-0.2-1.54-0.59c-0.36-0.39-0.54-0.95-0.54-1.67
			c0-0.7,0.19-1.25,0.56-1.65C426.03,265.84,426.54,265.64,427.18,265.64z"/>
		<path d="M431.54,266.45c-0.64,0-1.13,0.19-1.49,0.56c-0.36,0.37-0.54,0.9-0.54,1.57c0,0.43,0.08,0.81,0.25,1.13
			c0.17,0.32,0.4,0.57,0.71,0.74c0.3,0.17,0.65,0.26,1.05,0.26c0.64,0,1.14-0.19,1.5-0.57c0.36-0.38,0.54-0.9,0.54-1.57
			c0-0.65-0.18-1.17-0.54-1.56C432.65,266.64,432.16,266.45,431.54,266.45z M432.52,269.78c-0.23,0.27-0.56,0.41-0.99,0.41
			c-0.44,0-0.77-0.14-0.99-0.41c-0.22-0.28-0.34-0.68-0.34-1.2c0-0.53,0.11-0.93,0.33-1.2c0.22-0.27,0.55-0.4,0.99-0.4
			c0.44,0,0.78,0.14,1,0.41c0.23,0.27,0.34,0.67,0.34,1.19C432.86,269.11,432.75,269.51,432.52,269.78z"/>
		<path d="M439.51,266.45c-0.32,0-0.6,0.06-0.85,0.19c-0.25,0.12-0.44,0.29-0.57,0.51h-0.03c-0.21-0.47-0.66-0.7-1.35-0.7
			c-0.28,0-0.54,0.06-0.77,0.17c-0.23,0.11-0.41,0.27-0.53,0.47h-0.03l-0.11-0.56h-0.54v4.12h0.67v-2.16c0-0.53,0.1-0.92,0.29-1.15
			c0.19-0.23,0.5-0.35,0.92-0.35c0.32,0,0.55,0.08,0.7,0.25c0.15,0.16,0.23,0.41,0.23,0.74v2.68h0.67v-2.3c0-0.46,0.1-0.81,0.3-1.03
			c0.2-0.22,0.5-0.33,0.92-0.33c0.32,0,0.55,0.08,0.7,0.25c0.15,0.16,0.22,0.41,0.22,0.74v2.68H441v-2.69
			c0-0.53-0.12-0.91-0.37-1.15C440.38,266.57,440,266.45,439.51,266.45z"/>
		<path d="M442.57,266.27v0.23l-0.79,0.23v0.28h0.79v3.63h0.67v-3.63h1.12v-0.49h-1.12v-0.27c0-0.35,0.06-0.6,0.18-0.75
			c0.12-0.16,0.31-0.23,0.56-0.23c0.18,0,0.4,0.04,0.66,0.12l0.17-0.5c-0.31-0.09-0.59-0.13-0.82-0.13
			C443.04,264.75,442.57,265.26,442.57,266.27z"/>
		<path d="M446.94,266.45c-0.64,0-1.13,0.19-1.49,0.56c-0.36,0.37-0.54,0.9-0.54,1.57c0,0.43,0.08,0.81,0.25,1.13
			c0.17,0.32,0.4,0.57,0.71,0.74c0.3,0.17,0.65,0.26,1.05,0.26c0.64,0,1.14-0.19,1.5-0.57c0.36-0.38,0.54-0.9,0.54-1.57
			c0-0.65-0.18-1.17-0.54-1.56C448.05,266.64,447.56,266.45,446.94,266.45z M447.92,269.78c-0.23,0.27-0.56,0.41-0.99,0.41
			c-0.44,0-0.77-0.14-0.99-0.41c-0.22-0.28-0.34-0.68-0.34-1.2c0-0.53,0.11-0.93,0.33-1.2c0.22-0.27,0.55-0.4,0.99-0.4
			c0.44,0,0.78,0.14,1,0.41c0.23,0.27,0.34,0.67,0.34,1.19C448.26,269.11,448.15,269.51,447.92,269.78z"/>
		<path d="M451.37,266.67c-0.23,0.15-0.43,0.35-0.59,0.62h-0.03l-0.08-0.76h-0.55v4.12h0.67v-2.21c0-0.4,0.13-0.74,0.38-1.01
			c0.25-0.27,0.56-0.41,0.91-0.41c0.14,0,0.3,0.02,0.48,0.06l0.09-0.58c-0.16-0.03-0.33-0.04-0.53-0.04
			C451.85,266.45,451.6,266.52,451.37,266.67z"/>
		<path d="M454.9,270.2c-0.22,0-0.39-0.07-0.52-0.2c-0.13-0.13-0.19-0.32-0.19-0.57v-2.42h1.28v-0.49h-1.28v-0.95h-0.38l-0.28,0.88
			l-0.63,0.26v0.3h0.63v2.45c0,0.84,0.42,1.26,1.28,1.26c0.11,0,0.24-0.01,0.38-0.03c0.14-0.02,0.25-0.05,0.32-0.08v-0.48
			c-0.06,0.02-0.15,0.03-0.26,0.05C455.13,270.19,455.01,270.2,454.9,270.2z"/>
		<path d="M432.62,259.56h-3.71v-0.05l1.36-1.23c0.61-0.54,1.05-0.96,1.31-1.28c0.26-0.32,0.46-0.62,0.58-0.92
			c0.13-0.3,0.19-0.61,0.19-0.94c0-0.6-0.22-1.08-0.66-1.44c-0.44-0.36-1.02-0.53-1.75-0.53c-0.46,0-0.9,0.07-1.31,0.21
			c-0.41,0.14-0.83,0.39-1.27,0.73l0.68,0.78c0.37-0.27,0.69-0.46,0.97-0.56c0.28-0.1,0.57-0.16,0.87-0.16
			c0.37,0,0.67,0.09,0.88,0.29c0.21,0.19,0.32,0.45,0.32,0.78c0,0.24-0.04,0.47-0.13,0.68c-0.09,0.21-0.23,0.43-0.43,0.67
			c-0.19,0.24-0.59,0.64-1.19,1.21l-2.02,1.9v0.89h5.3V259.56z"/>
		<path d="M438.22,259.77c0.44-0.62,0.66-1.56,0.66-2.84c0-1.24-0.23-2.17-0.67-2.82c-0.45-0.64-1.11-0.96-1.99-0.96
			c-0.9,0-1.56,0.31-2,0.92c-0.44,0.61-0.66,1.57-0.66,2.86c0,1.23,0.22,2.17,0.67,2.81c0.45,0.64,1.11,0.96,1.98,0.96
			C437.11,260.7,437.78,260.39,438.22,259.77z M435.16,259.07c-0.22-0.43-0.33-1.14-0.33-2.14s0.11-1.71,0.33-2.14
			c0.22-0.43,0.57-0.65,1.05-0.65c0.48,0,0.83,0.22,1.06,0.66c0.22,0.44,0.33,1.15,0.33,2.13c0,0.99-0.11,1.7-0.33,2.13
			c-0.22,0.43-0.58,0.65-1.06,0.65C435.73,259.71,435.38,259.5,435.16,259.07z"/>
		<path d="M440.23,259.4c-0.12,0.77-0.31,1.61-0.55,2.52h0.93c0.46-0.98,0.77-1.78,0.94-2.4l-0.08-0.12H440.23z"/>
		<path d="M445.4,260.7c0.9,0,1.57-0.31,2-0.93c0.44-0.62,0.66-1.56,0.66-2.84c0-1.24-0.23-2.17-0.67-2.82
			c-0.45-0.64-1.11-0.96-1.99-0.96c-0.9,0-1.56,0.31-2,0.92c-0.44,0.61-0.66,1.57-0.66,2.86c0,1.23,0.22,2.17,0.67,2.81
			C443.87,260.38,444.53,260.7,445.4,260.7z M444.35,254.79c0.22-0.43,0.57-0.65,1.05-0.65c0.48,0,0.83,0.22,1.06,0.66
			c0.22,0.44,0.33,1.15,0.33,2.13c0,0.99-0.11,1.7-0.33,2.13c-0.22,0.43-0.58,0.65-1.06,0.65c-0.48,0-0.83-0.21-1.05-0.64
			c-0.22-0.43-0.33-1.14-0.33-2.14S444.13,255.22,444.35,254.79z"/>
		<path d="M451.91,256.26c0.31-0.32,0.47-0.75,0.47-1.3c0-0.55-0.16-0.99-0.47-1.31c-0.31-0.32-0.74-0.47-1.28-0.47
			c-0.55,0-0.98,0.16-1.29,0.47c-0.32,0.31-0.47,0.75-0.47,1.31c0,0.54,0.16,0.98,0.47,1.29c0.31,0.32,0.74,0.48,1.27,0.48
			C451.16,256.74,451.6,256.58,451.91,256.26z M449.72,254.96c0-0.38,0.07-0.66,0.21-0.84c0.14-0.18,0.37-0.27,0.68-0.27
			c0.31,0,0.54,0.09,0.68,0.27c0.14,0.18,0.21,0.46,0.21,0.84c0,0.37-0.07,0.65-0.21,0.83c-0.14,0.18-0.37,0.28-0.68,0.28
			c-0.31,0-0.54-0.09-0.68-0.28C449.79,255.61,449.72,255.33,449.72,254.96z"/>
		<path d="M429.54,209.86v4.24h1.65v-7.33h-1.36l-2.52,1.88l0.8,0.93l0.9-0.68c0.11-0.08,0.3-0.25,0.57-0.51l-0.03,0.76
			L429.54,209.86z"/>
		<path d="M437.45,207.07c-0.43-0.25-0.94-0.38-1.52-0.38c-0.82,0-1.47,0.23-1.95,0.68c-0.48,0.46-0.71,1.08-0.71,1.86
			c0,0.73,0.2,1.3,0.59,1.71c0.39,0.41,0.93,0.61,1.61,0.61c0.41,0,0.75-0.06,1.02-0.19c0.27-0.13,0.51-0.35,0.72-0.66h0.06
			c-0.03,0.57-0.14,1.02-0.33,1.35c-0.19,0.33-0.46,0.56-0.82,0.72c-0.36,0.15-0.81,0.23-1.37,0.23c-0.33,0-0.64-0.04-0.94-0.11
			v1.24c0.24,0.05,0.59,0.07,1.05,0.07c1.32,0,2.3-0.36,2.95-1.07c0.65-0.71,0.97-1.79,0.97-3.23c0-0.67-0.12-1.24-0.35-1.73
			C438.22,207.7,437.88,207.33,437.45,207.07z M436.8,210.06c-0.24,0.2-0.53,0.31-0.86,0.31c-0.36,0-0.62-0.1-0.8-0.31
			c-0.17-0.21-0.26-0.49-0.26-0.84c0-0.41,0.1-0.73,0.29-0.95c0.19-0.22,0.46-0.33,0.8-0.33c0.35,0,0.63,0.14,0.85,0.41
			c0.22,0.27,0.33,0.61,0.33,1.01C437.15,209.62,437.03,209.86,436.8,210.06z"/>
		<path d="M441.63,213.03l-0.08-0.12h-1.5c-0.13,0.79-0.31,1.63-0.54,2.52h1.18C441.13,214.5,441.45,213.7,441.63,213.03z"/>
		<path d="M447.55,213.28c0.45-0.61,0.67-1.56,0.67-2.84c0-1.24-0.23-2.17-0.69-2.82c-0.46-0.64-1.14-0.96-2.05-0.96
			c-0.93,0-1.62,0.31-2.06,0.92c-0.45,0.61-0.67,1.57-0.67,2.86c0,1.24,0.23,2.18,0.69,2.81c0.46,0.63,1.14,0.95,2.04,0.95
			C446.41,214.2,447.1,213.9,447.55,213.28z M446.32,212.37c-0.17,0.39-0.45,0.59-0.83,0.59c-0.39,0-0.67-0.19-0.84-0.58
			c-0.17-0.39-0.25-1.03-0.25-1.93c0-0.9,0.08-1.54,0.25-1.94c0.17-0.39,0.45-0.59,0.84-0.59c0.38,0,0.66,0.2,0.83,0.59
			c0.17,0.39,0.26,1.04,0.26,1.94C446.57,211.33,446.49,211.97,446.32,212.37z"/>
		<path d="M450.75,206.69c-0.58,0-1.03,0.16-1.35,0.49c-0.32,0.32-0.48,0.77-0.48,1.33c0,0.56,0.17,1,0.5,1.33
			c0.33,0.33,0.77,0.49,1.31,0.49c0.57,0,1.01-0.16,1.34-0.48c0.33-0.32,0.49-0.77,0.49-1.34c0-0.55-0.17-1-0.5-1.33
			C451.73,206.86,451.29,206.69,450.75,206.69z M451.29,209.27c-0.11,0.17-0.3,0.25-0.55,0.25c-0.26,0-0.44-0.08-0.56-0.25
			c-0.12-0.17-0.17-0.42-0.17-0.75c0-0.33,0.06-0.58,0.17-0.75c0.12-0.17,0.3-0.25,0.56-0.25c0.26,0,0.44,0.08,0.55,0.25
			c0.11,0.17,0.17,0.42,0.17,0.75C451.46,208.85,451.4,209.1,451.29,209.27z"/>
		<path d="M116.15,234.6c0.17,0.33,0.51,0.56,0.9,0.56h16.48c0.4,0,0.73-0.23,0.9-0.56c0.1-0.06,0.17-0.15,0.17-0.27v-1.92
			c0-0.05-0.02-0.1-0.05-0.15v-1.71h0.05v-2.57h-0.05v-1.54h0.05v-2.57h-0.05v-1.54h0.05v-2.57h-0.05v-24.09
			c0-0.57-0.46-1.03-1.03-1.03h-16.48c-0.57,0-1.03,0.46-1.03,1.03v24.09h-0.05v2.57h0.05v1.54h-0.05v2.57h0.05v1.54h-0.05v2.57
			h0.05v1.71c-0.03,0.05-0.05,0.09-0.05,0.15v1.92C115.97,234.45,116.04,234.54,116.15,234.6z M117.05,195.65l16.51,0.03v24.09
			h-16.53L117.05,195.65z M117.03,222.34h16.53v1.54h-16.53L117.03,222.34z M117.02,226.44h16.53v1.54h-16.53L117.02,226.44z
			 M117.02,230.55h16.54v1.54h-16.54L117.02,230.55z"/>
		<path d="M248.59,235.16h16.48c0.57,0,1.03-0.46,1.03-1.03v-38.45c0-0.57-0.46-1.03-1.03-1.03h-16.48c-0.57,0-1.03,0.46-1.03,1.03
			v38.45C247.56,234.7,248.02,235.16,248.59,235.16z M248.59,195.65l16.51,0.03v19.16h-16.52L248.59,195.65z"/>
	</g>
</g>
</svg>
